<?xml version="1.0" encoding="utf-8"?>
<!-- Generator: Adobe Illustrator 17.0.0, SVG Export Plug-In . SVG Version: 6.00 Build 0)  -->
<!DOCTYPE svg PUBLIC "-//W3C//DTD SVG 1.1//EN" "http://www.w3.org/Graphics/SVG/1.1/DTD/svg11.dtd">
<svg version="1.1" xmlns="http://www.w3.org/2000/svg" xmlns:xlink="http://www.w3.org/1999/xlink" x="0px" y="0px"
	 width="595.28px" height="841.89px" viewBox="0 0 595.28 841.89" enable-background="new 0 0 595.28 841.89" xml:space="preserve">
<g id="square">
	<rect x="103" y="199" fill="none" stroke="#000000" stroke-miterlimit="10" width="356" height="232"/>
	<rect x="118" y="212" fill="none" stroke="#000000" stroke-miterlimit="10" width="62" height="27"/>
	<rect x="118" y="261" fill="none" stroke="#000000" stroke-miterlimit="10" width="64" height="28"/>
	<rect x="119" y="309" fill="none" stroke="#000000" stroke-miterlimit="10" width="62" height="32"/>
	<rect x="120" y="371" fill="none" stroke="#000000" stroke-miterlimit="10" width="62" height="30"/>
	<rect x="227" y="213" fill="none" stroke="#000000" stroke-miterlimit="10" width="62" height="27"/>
	<rect x="227" y="262" fill="none" stroke="#000000" stroke-miterlimit="10" width="64" height="28"/>
	<rect x="228" y="310" fill="none" stroke="#000000" stroke-miterlimit="10" width="62" height="32"/>
	<rect x="229" y="372" fill="none" stroke="#000000" stroke-miterlimit="10" width="62" height="30"/>
	<rect x="355" y="213" fill="none" stroke="#000000" stroke-miterlimit="10" width="62" height="27"/>
	<rect x="355" y="262" fill="none" stroke="#000000" stroke-miterlimit="10" width="64" height="28"/>
	<rect x="356" y="310" fill="none" stroke="#000000" stroke-miterlimit="10" width="62" height="32"/>
	<rect x="357" y="372" fill="none" stroke="#000000" stroke-miterlimit="10" width="62" height="30"/>
	<line fill="none" stroke="#000000" stroke-width="3" stroke-miterlimit="10" x1="458" y1="301" x2="612" y2="301"/>
</g>
<g id="circle">
	<circle fill="#C7B5D8" stroke="#000000" stroke-miterlimit="10" cx="275.5" cy="597.5" r="48.5"/>
	<line fill="none" stroke="#000000" stroke-width="3" stroke-miterlimit="10" x1="275" y1="431" x2="275" y2="550"/>
</g>
</svg>
