<?xml version="1.0" encoding="utf-8"?>
<!-- Generator: Adobe Illustrator 17.0.0, SVG Export Plug-In . SVG Version: 6.00 Build 0)  -->
<!DOCTYPE svg PUBLIC "-//W3C//DTD SVG 1.1//EN" "http://www.w3.org/Graphics/SVG/1.1/DTD/svg11.dtd">
<svg version="1.1" xmlns="http://www.w3.org/2000/svg" xmlns:xlink="http://www.w3.org/1999/xlink" x="0px" y="0px"
	 width="841.89px" height="595.28px" viewBox="0 0 841.89 595.28" enable-background="new 0 0 841.89 595.28" xml:space="preserve">
<g id="main">
	<circle fill="none" stroke="#000000" stroke-miterlimit="10" cx="157.13" cy="198.802" r="3.903"/>
	
		<line fill="none" stroke="#000000" stroke-width="3" stroke-miterlimit="10" x1="164.156" y1="187.092" x2="164.156" y2="210.513"/>
	<circle fill="none" stroke="#000000" stroke-miterlimit="10" cx="258.618" cy="264.379" r="3.903"/>
	<line fill="none" stroke="#000000" stroke-width="3" stroke-miterlimit="10" x1="265.644" y1="252.669" x2="265.644" y2="276.09"/>
	<circle fill="none" stroke="#000000" stroke-miterlimit="10" cx="156.974" cy="264.379" r="3.903"/>
	<line fill="none" stroke="#000000" stroke-width="3" stroke-miterlimit="10" x1="164" y1="252.669" x2="164" y2="276.09"/>
	<circle fill="none" stroke="#000000" stroke-miterlimit="10" cx="406.947" cy="264.379" r="3.903"/>
	<line fill="none" stroke="#000000" stroke-width="3" stroke-miterlimit="10" x1="413.973" y1="252.669" x2="413.973" y2="276.09"/>
	
		<line fill="none" stroke="#000000" stroke-width="3" stroke-miterlimit="10" x1="164.156" y1="319.808" x2="164.156" y2="343.228"/>
	
		<line fill="none" stroke="#000000" stroke-width="3" stroke-miterlimit="10" x1="265.644" y1="319.808" x2="265.644" y2="343.228"/>
	
		<line fill="none" stroke="#000000" stroke-width="3" stroke-miterlimit="10" x1="164.156" y1="366.649" x2="164.156" y2="390.069"/>
	
		<line fill="none" stroke="#000000" stroke-width="3" stroke-miterlimit="10" x1="413.973" y1="312.001" x2="413.973" y2="335.421"/>
	
		<line fill="none" stroke="#000000" stroke-width="3" stroke-miterlimit="10" x1="239.101" y1="382.262" x2="239.101" y2="405.683"/>
	
		<line fill="none" stroke="#000000" stroke-width="3" stroke-miterlimit="10" x1="293.749" y1="382.262" x2="293.749" y2="405.683"/>
	
		<line fill="none" stroke="#000000" stroke-width="3" stroke-miterlimit="10" x1="351.519" y1="382.262" x2="351.519" y2="405.683"/>
	<line fill="none" stroke="#000000" stroke-width="3" stroke-miterlimit="10" x1="490.48" y1="382.262" x2="490.48" y2="405.683"/>
	
		<line fill="none" stroke="#000000" stroke-width="3" stroke-miterlimit="10" x1="413.973" y1="382.262" x2="413.973" y2="405.683"/>
	<line fill="none" stroke="#000000" stroke-miterlimit="10" x1="251.592" y1="425.2" x2="251.592" y2="440.032"/>
	<line fill="none" stroke="#000000" stroke-miterlimit="10" x1="243.785" y1="439.772" x2="258.878" y2="439.772"/>
	<line fill="none" stroke="#000000" stroke-miterlimit="10" x1="245.347" y1="443.415" x2="257.837" y2="443.415"/>
	<line fill="none" stroke="#000000" stroke-miterlimit="10" x1="249.25" y1="447.059" x2="253.934" y2="447.059"/>
	<line fill="none" stroke="#000000" stroke-miterlimit="10" x1="559.18" y1="509.513" x2="559.18" y2="524.346"/>
	<line fill="none" stroke="#000000" stroke-miterlimit="10" x1="551.373" y1="524.086" x2="566.466" y2="524.086"/>
	<line fill="none" stroke="#000000" stroke-miterlimit="10" x1="552.934" y1="527.729" x2="565.425" y2="527.729"/>
	<line fill="none" stroke="#000000" stroke-miterlimit="10" x1="556.838" y1="531.372" x2="561.522" y2="531.372"/>
	<circle fill="none" stroke="#000000" stroke-miterlimit="10" cx="602.117" cy="148.839" r="3.903"/>
	
		<line fill="none" stroke="#000000" stroke-width="3" stroke-miterlimit="10" x1="609.143" y1="137.129" x2="609.143" y2="160.549"/>
	<polyline fill="none" stroke="#6DBE45" stroke-miterlimit="10" points="621.634,114.489 621.634,137.909 613.827,137.909 
		613.827,148.839 	"/>
	<line fill="none" stroke="#000000" stroke-miterlimit="10" x1="621.634" y1="264.379" x2="621.634" y2="279.212"/>
	<line fill="none" stroke="#000000" stroke-miterlimit="10" x1="613.827" y1="278.952" x2="628.921" y2="278.952"/>
	<line fill="none" stroke="#000000" stroke-miterlimit="10" x1="615.389" y1="282.595" x2="627.88" y2="282.595"/>
	<line fill="none" stroke="#000000" stroke-miterlimit="10" x1="619.292" y1="286.239" x2="623.976" y2="286.239"/>
	<line fill="none" stroke="#000000" stroke-miterlimit="10" x1="621.634" y1="462.672" x2="621.634" y2="477.505"/>
	<line fill="none" stroke="#000000" stroke-miterlimit="10" x1="613.827" y1="477.245" x2="628.921" y2="477.245"/>
	<line fill="none" stroke="#000000" stroke-miterlimit="10" x1="615.389" y1="480.888" x2="627.88" y2="480.888"/>
	<line fill="none" stroke="#000000" stroke-miterlimit="10" x1="619.292" y1="484.531" x2="623.976" y2="484.531"/>
	<text transform="matrix(1 0 0 1 125.898 204.6675)" font-family="'AdobeSongStd-Light-GBpc-EUC-H'" font-size="18.7363">a</text>
	<text transform="matrix(1 0 0 1 125.898 384.2237)" font-family="'AdobeSongStd-Light-GBpc-EUC-H'" font-size="18.7363">a</text>
	<text transform="matrix(1 0 0 1 188.353 204.6675)" font-family="'AdobeSongStd-Light-GBpc-EUC-H'" font-size="18.7363">a</text>
	<text transform="matrix(1 0 0 1 375.7163 204.6675)" font-family="'AdobeSongStd-Light-GBpc-EUC-H'" font-size="18.7363">a</text>
	<text transform="matrix(1 0 0 1 203.9663 399.8369)" font-family="'AdobeSongStd-Light-GBpc-EUC-H'" font-size="18.7363">a</text>
	<text transform="matrix(1 0 0 1 383.5229 399.8369)" font-family="'AdobeSongStd-Light-GBpc-EUC-H'" font-size="18.7363">a</text>
	<text transform="matrix(1 0 0 1 508.4316 110.9854)" font-family="'AdobeSongStd-Light-GBpc-EUC-H'" font-size="18.7363">a</text>
	<text transform="matrix(1 0 0 1 516.2393 470.0977)" font-family="'AdobeSongStd-Light-GBpc-EUC-H'" font-size="18.7363">a</text>
	<text transform="matrix(1 0 0 1 250.0025 204.6665)" font-family="'AdobeSongStd-Light-GBpc-EUC-H'" font-size="18.7363">b</text>
	<text transform="matrix(1 0 0 1 437.3652 204.6665)" font-family="'AdobeSongStd-Light-GBpc-EUC-H'" font-size="18.7363">b</text>
	<text transform="matrix(1 0 0 1 257.8101 399.836)" font-family="'AdobeSongStd-Light-GBpc-EUC-H'" font-size="18.7363">b</text>
	<text transform="matrix(1 0 0 1 457.6621 399.836)" font-family="'AdobeSongStd-Light-GBpc-EUC-H'" font-size="18.7363">b</text>
	<text transform="matrix(1 0 0 1 507.626 176.5621)" font-family="'AdobeSongStd-Light-GBpc-EUC-H'" font-size="18.7363">b</text>
	<text transform="matrix(1 0 0 1 512.3096 402.959)" font-family="'AdobeSongStd-Light-GBpc-EUC-H'" font-size="18.7363">b</text>
	<text transform="matrix(1 0 0 1 309.5718 204.667)"><tspan x="0" y="0" font-family="'AdobeSongStd-Light-GBpc-EUC-H'" font-size="18.7363">c</tspan><tspan x="8" y="0" font-family="'AdobeSongStd-Light-GBpc-EUC-H'" font-size="9.3682">in</tspan></text>
	<text transform="matrix(1 0 0 1 223.6968 270.2432)"><tspan x="0" y="0" font-family="'AdobeSongStd-Light-GBpc-EUC-H'" font-size="18.7363">c</tspan><tspan x="8" y="0" font-family="'AdobeSongStd-Light-GBpc-EUC-H'" font-size="9.3682">in</tspan></text>
	<text transform="matrix(1 0 0 1 229.9419 337.3828)"><tspan x="0" y="0" font-family="'AdobeSongStd-Light-GBpc-EUC-H'" font-size="18.7363">c</tspan><tspan x="8" y="0" font-family="'AdobeSongStd-Light-GBpc-EUC-H'" font-size="9.3682">in</tspan></text>
	<text transform="matrix(1 0 0 1 314.2544 399.837)"><tspan x="0" y="0" font-family="'AdobeSongStd-Light-GBpc-EUC-H'" font-size="18.7363">c</tspan><tspan x="8" y="0" font-family="'AdobeSongStd-Light-GBpc-EUC-H'" font-size="9.3682">in</tspan></text>
	<text transform="matrix(1 0 0 1 504.7412 242.1392)"><tspan x="0" y="0" font-family="'AdobeSongStd-Light-GBpc-EUC-H'" font-size="18.7363">c</tspan><tspan x="8" y="0" font-family="'AdobeSongStd-Light-GBpc-EUC-H'" font-size="9.3682">in</tspan></text>
	<text transform="matrix(1 0 0 1 509.4258 337.3828)"><tspan x="0" y="0" font-family="'AdobeSongStd-Light-GBpc-EUC-H'" font-size="18.7363">c</tspan><tspan x="8" y="0" font-family="'AdobeSongStd-Light-GBpc-EUC-H'" font-size="9.3682">in</tspan></text>
	<text transform="matrix(1 0 0 1 126.6548 270.2427)" font-family="'AdobeSongStd-Light-GBpc-EUC-H'" font-size="18.7363">b</text>
	<text transform="matrix(1 0 0 1 129.7778 337.3829)" font-family="'AdobeSongStd-Light-GBpc-EUC-H'" font-size="18.7363">b</text>
	<circle cx="426.464" cy="292.484" r="2.342"/>
	<circle cx="559.18" cy="292.484" r="2.342"/>
	<line fill="none" stroke="#6DBE45" stroke-miterlimit="10" x1="239.101" y1="159.768" x2="239.101" y2="141.422"/>
	<line fill="none" stroke="#000000" stroke-miterlimit="10" x1="231.294" y1="141.032" x2="246.908" y2="141.032"/>
	<text transform="matrix(1 0 0 1 230.5142 137.9097)" font-family="'AdobeSongStd-Light-GBpc-EUC-H'" font-size="9.3682">Vdd</text>
	<line fill="none" stroke="#6DBE45" stroke-miterlimit="10" x1="551.373" y1="66.087" x2="566.987" y2="66.087"/>
	<text transform="matrix(1 0 0 1 550.5928 62.9649)" font-family="'AdobeSongStd-Light-GBpc-EUC-H'" font-size="9.3682">Vdd</text>
	<line fill="none" stroke="#6DBE45" stroke-miterlimit="10" x1="613.827" y1="114.489" x2="629.441" y2="114.489"/>
	<text transform="matrix(1 0 0 1 613.0459 111.3667)" font-family="'AdobeSongStd-Light-GBpc-EUC-H'" font-size="9.3682">Vdd</text>
	<circle fill="none" stroke="#000000" stroke-miterlimit="10" cx="469.402" cy="198.802" r="3.903"/>
	
		<line fill="none" stroke="#000000" stroke-width="3" stroke-miterlimit="10" x1="476.428" y1="187.092" x2="476.428" y2="210.513"/>
	<circle fill="none" stroke="#000000" stroke-miterlimit="10" cx="406.947" cy="198.802" r="3.903"/>
	
		<line fill="none" stroke="#000000" stroke-width="3" stroke-miterlimit="10" x1="413.973" y1="187.092" x2="413.973" y2="210.513"/>
	<circle fill="none" stroke="#000000" stroke-miterlimit="10" cx="344.493" cy="198.802" r="3.903"/>
	
		<line fill="none" stroke="#000000" stroke-width="3" stroke-miterlimit="10" x1="351.519" y1="187.092" x2="351.519" y2="210.513"/>
	<circle fill="none" stroke="#000000" stroke-miterlimit="10" cx="282.039" cy="198.802" r="3.903"/>
	
		<line fill="none" stroke="#000000" stroke-width="3" stroke-miterlimit="10" x1="289.065" y1="187.092" x2="289.065" y2="210.513"/>
	<circle fill="none" stroke="#000000" stroke-miterlimit="10" cx="219.584" cy="198.802" r="3.903"/>
	<line fill="none" stroke="#000000" stroke-width="3" stroke-miterlimit="10" x1="226.61" y1="187.092" x2="226.61" y2="210.513"/>
	<polyline fill="none" stroke="#6DBE45" stroke-miterlimit="10" points="239.101,159.768 176.647,159.768 176.647,187.873 
		168.84,187.873 168.84,198.802 	"/>
	<polyline fill="none" stroke="#6DBE45" stroke-miterlimit="10" points="239.101,159.768 488.919,159.768 488.919,187.873 
		481.112,187.873 481.112,198.802 	"/>
	<polyline fill="none" stroke="#6DBE45" stroke-miterlimit="10" points="239.101,159.768 426.464,159.768 426.464,187.873 
		418.658,187.873 418.658,198.802 	"/>
	<polyline fill="none" stroke="#6DBE45" stroke-miterlimit="10" points="239.101,159.768 364.01,159.768 364.01,187.873 
		356.203,187.873 356.203,198.802 	"/>
	<polyline fill="none" stroke="#6DBE45" stroke-miterlimit="10" points="239.101,159.768 301.556,159.768 301.556,187.873 
		293.749,187.873 293.749,198.802 	"/>
	<polyline fill="none" stroke="#6DBE45" stroke-miterlimit="10" points="239.101,159.768 239.101,187.873 231.294,187.873 
		231.294,198.802 	"/>
	<circle fill="none" stroke="#000000" stroke-miterlimit="10" cx="539.663" cy="105.121" r="3.903"/>
	<line fill="none" stroke="#000000" stroke-width="3" stroke-miterlimit="10" x1="546.689" y1="93.411" x2="546.689" y2="116.831"/>
	<polyline fill="none" stroke="#6DBE45" stroke-miterlimit="10" points="559.18,66.087 559.18,94.191 551.373,94.191 
		551.373,105.121 	"/>
	<circle fill="none" stroke="#000000" stroke-miterlimit="10" cx="539.663" cy="170.698" r="3.903"/>
	
		<line fill="none" stroke="#000000" stroke-width="3" stroke-miterlimit="10" x1="546.689" y1="158.988" x2="546.689" y2="182.408"/>
	<circle fill="none" stroke="#000000" stroke-miterlimit="10" cx="539.663" cy="236.275" r="3.903"/>
	
		<line fill="none" stroke="#000000" stroke-width="3" stroke-miterlimit="10" x1="546.689" y1="224.565" x2="546.689" y2="247.985"/>
	
		<line fill="none" stroke="#000000" stroke-width="3" stroke-miterlimit="10" x1="546.689" y1="319.808" x2="546.689" y2="343.228"/>
	
		<line fill="none" stroke="#000000" stroke-width="3" stroke-miterlimit="10" x1="546.689" y1="385.385" x2="546.689" y2="408.805"/>
	
		<line fill="none" stroke="#000000" stroke-width="3" stroke-miterlimit="10" x1="546.689" y1="450.962" x2="546.689" y2="474.382"/>
	
		<line fill="none" stroke="#000000" stroke-width="3" stroke-miterlimit="10" x1="609.143" y1="204.267" x2="609.143" y2="227.688"/>
	<circle fill="none" stroke="#000000" stroke-miterlimit="10" cx="602.117" cy="350.254" r="3.903"/>
	
		<line fill="none" stroke="#000000" stroke-width="3" stroke-miterlimit="10" x1="609.143" y1="338.544" x2="609.143" y2="361.964"/>
	<polyline fill="none" stroke="#6DBE45" stroke-miterlimit="10" points="621.634,315.904 621.634,339.325 613.827,339.325 
		613.827,350.254 	"/>
	
		<line fill="none" stroke="#000000" stroke-width="3" stroke-miterlimit="10" x1="609.143" y1="405.683" x2="609.143" y2="429.103"/>
	<line fill="none" stroke="#6DBE45" stroke-miterlimit="10" x1="613.373" y1="315.087" x2="628.987" y2="315.087"/>
	<text transform="matrix(1 0 0 1 612.5928 311.9649)" font-family="'AdobeSongStd-Light-GBpc-EUC-H'" font-size="9.3682">Vdd</text>
</g>
<g id="lines">
	<polyline fill="none" stroke="#000000" stroke-miterlimit="10" points="168.84,198.802 168.84,209.732 176.647,209.732 
		176.647,253.45 168.84,253.45 168.84,265.16 	"/>
	<polyline fill="none" stroke="#000000" stroke-miterlimit="10" points="278.135,230.03 278.135,253.45 270.328,253.45 
		270.328,264.379 	"/>
	<polyline fill="none" stroke="#000000" stroke-miterlimit="10" points="270.328,264.379 270.328,275.309 278.135,275.309 
		278.135,300.291 395.237,300.291 	"/>
	<polyline fill="none" stroke="#000000" stroke-miterlimit="10" points="168.84,264.379 168.84,275.309 176.647,275.309 
		176.647,300.291 395.237,300.291 	"/>
	<polyline fill="none" stroke="#000000" stroke-miterlimit="10" points="395.237,300.291 395.237,264.379 403.044,264.379 	"/>
	<polyline fill="none" stroke="#000000" stroke-miterlimit="10" points="426.464,230.03 426.464,253.45 418.658,253.45 
		418.658,264.379 	"/>
	<polyline fill="none" stroke="#000000" stroke-miterlimit="10" points="418.658,264.379 418.658,275.309 426.464,275.309 
		426.464,292.484 590.407,292.484 	"/>
	<polyline fill="none" stroke="#000000" stroke-miterlimit="10" points="176.647,300.291 176.647,320.588 168.84,320.588 
		168.84,331.518 	"/>
	<polyline fill="none" stroke="#000000" stroke-miterlimit="10" points="168.84,331.518 168.84,342.447 176.647,342.447 
		176.647,367.429 168.84,367.429 168.84,378.359 	"/>
	<polyline fill="none" stroke="#000000" stroke-miterlimit="10" points="278.135,300.291 278.135,320.588 270.328,320.588 
		270.328,331.518 	"/>
	<polyline fill="none" stroke="#000000" stroke-miterlimit="10" points="270.328,331.518 270.328,342.447 278.135,342.447 
		278.135,362.745 	"/>
	<polyline fill="none" stroke="#000000" stroke-miterlimit="10" points="395.237,300.291 395.237,323.711 413.973,323.711 	"/>
	<polyline fill="none" stroke="#000000" stroke-miterlimit="10" points="426.464,292.484 426.464,312.782 418.658,312.782 
		418.658,323.711 	"/>
	<polyline fill="none" stroke="#000000" stroke-miterlimit="10" points="418.658,323.711 418.658,334.641 426.464,334.641 
		426.464,354.938 	"/>
	<polyline fill="none" stroke="#000000" stroke-miterlimit="10" points="278.135,362.745 251.592,362.745 251.592,383.043 
		243.785,383.043 243.785,393.972 	"/>
	<polyline fill="none" stroke="#000000" stroke-miterlimit="10" points="243.785,393.972 243.785,404.902 251.592,404.902 
		251.592,425.2 	"/>
	<polyline fill="none" stroke="#000000" stroke-miterlimit="10" points="278.135,362.745 306.24,362.745 306.24,383.043 
		298.433,383.043 298.433,393.972 	"/>
	<polyline fill="none" stroke="#000000" stroke-miterlimit="10" points="298.433,393.972 298.433,404.902 306.24,404.902 
		306.24,425.2 251.592,425.2 	"/>
	<polyline fill="none" stroke="#000000" stroke-miterlimit="10" points="168.84,378.359 168.84,389.288 176.647,389.288 
		176.647,425.2 251.592,425.2 	"/>
	<polyline fill="none" stroke="#000000" stroke-miterlimit="10" points="426.464,354.938 364.01,354.938 364.01,383.043 
		356.203,383.043 356.203,393.972 	"/>
	<polyline fill="none" stroke="#000000" stroke-miterlimit="10" points="356.203,393.972 356.203,404.902 364.01,404.902 
		364.01,425.2 251.592,425.2 	"/>
	<polyline fill="none" stroke="#000000" stroke-miterlimit="10" points="426.464,354.938 502.971,354.938 502.971,383.043 
		495.164,383.043 495.164,393.972 	"/>
	<polyline fill="none" stroke="#000000" stroke-miterlimit="10" points="495.164,393.972 495.164,404.902 502.971,404.902 
		502.971,425.2 251.592,425.2 	"/>
	<polyline fill="none" stroke="#000000" stroke-miterlimit="10" points="426.464,354.938 426.464,383.043 418.658,383.043 
		418.658,393.972 	"/>
	<polyline fill="none" stroke="#000000" stroke-miterlimit="10" points="418.658,393.972 418.658,404.902 426.464,404.902 
		426.464,425.2 251.592,425.2 	"/>
	<polyline fill="none" stroke="#000000" stroke-miterlimit="10" points="590.407,292.484 590.407,148.839 598.214,148.839 	"/>
	<polyline fill="none" stroke="#000000" stroke-miterlimit="10" points="613.827,148.839 613.827,159.768 621.634,159.768 
		621.634,176.943 754.35,176.943 	"/>
	<polyline fill="none" stroke="#000000" stroke-miterlimit="10" points="481.112,198.802 481.112,209.732 488.919,209.732 
		488.919,230.03 426.464,230.03 	"/>
	<polyline fill="none" stroke="#000000" stroke-miterlimit="10" points="418.658,198.802 418.658,209.732 426.464,209.732 
		426.464,230.03 	"/>
	<polyline fill="none" stroke="#000000" stroke-miterlimit="10" points="356.203,198.802 356.203,209.732 364.01,209.732 
		364.01,230.03 426.464,230.03 	"/>
	<polyline fill="none" stroke="#000000" stroke-miterlimit="10" points="293.749,198.802 293.749,209.732 301.556,209.732 
		301.556,230.03 278.135,230.03 	"/>
	<polyline fill="none" stroke="#000000" stroke-miterlimit="10" points="231.294,198.802 231.294,209.732 239.101,209.732 
		239.101,230.03 278.135,230.03 	"/>
	<polyline fill="none" stroke="#000000" stroke-miterlimit="10" points="551.373,105.121 551.373,116.05 559.18,116.05 
		559.18,159.768 551.373,159.768 551.373,171.479 	"/>
	<polyline fill="none" stroke="#000000" stroke-miterlimit="10" points="551.373,170.698 551.373,181.627 559.18,181.627 
		559.18,225.346 551.373,225.346 551.373,237.056 	"/>
	<polyline fill="none" stroke="#000000" stroke-miterlimit="10" points="551.373,236.275 551.373,247.205 559.18,247.205 
		559.18,292.484 	"/>
	<polyline fill="none" stroke="#000000" stroke-miterlimit="10" points="551.373,331.518 551.373,342.447 559.18,342.447 
		559.18,386.166 551.373,386.166 551.373,397.876 	"/>
	<polyline fill="none" stroke="#000000" stroke-miterlimit="10" points="559.18,292.484 559.18,320.588 551.373,320.588 
		551.373,331.518 	"/>
	<polyline fill="none" stroke="#000000" stroke-miterlimit="10" points="551.373,397.095 551.373,408.025 559.18,408.025 
		559.18,451.743 551.373,451.743 551.373,463.453 	"/>
	<polyline fill="none" stroke="#000000" stroke-miterlimit="10" points="551.373,462.672 551.373,473.602 559.18,473.602 
		559.18,518.881 	"/>
	<line fill="none" stroke="#000000" stroke-miterlimit="10" x1="590.407" y1="215.977" x2="607.582" y2="215.977"/>
	<polyline fill="none" stroke="#000000" stroke-miterlimit="10" points="613.827,215.977 613.827,226.907 621.634,226.907 
		621.634,270.625 	"/>
	<polyline fill="none" stroke="#000000" stroke-miterlimit="10" points="621.634,176.943 621.634,205.048 613.827,205.048 
		613.827,215.977 	"/>
	<line fill="none" stroke="#000000" stroke-miterlimit="10" x1="395.237" y1="300.291" x2="590.407" y2="300.291"/>
	<polyline fill="none" stroke="#000000" stroke-miterlimit="10" points="590.407,300.291 590.407,350.254 598.214,350.254 	"/>
	<polyline fill="none" stroke="#000000" stroke-miterlimit="10" points="613.827,350.254 613.827,361.184 621.634,361.184 
		621.634,378.359 754.35,378.359 	"/>
	<polyline fill="none" stroke="#000000" stroke-miterlimit="10" points="590.407,300.291 590.407,417.393 607.582,417.393 	"/>
	<polyline fill="none" stroke="#000000" stroke-miterlimit="10" points="613.827,417.393 613.827,428.322 621.634,428.322 
		621.634,472.04 	"/>
	<polyline fill="none" stroke="#000000" stroke-miterlimit="10" points="621.634,378.359 621.634,406.463 613.827,406.463 
		613.827,417.393 	"/>
</g>
<g id="c">
	<line fill="none" stroke="#000000" stroke-miterlimit="10" x1="238.101" y1="264.379" x2="253.715" y2="264.379"/>
	<line fill="none" stroke="#000000" stroke-miterlimit="10" x1="244.347" y1="331.518" x2="264.644" y2="331.518"/>
	<line fill="none" stroke="#000000" stroke-miterlimit="10" x1="330.221" y1="393.972" x2="350.519" y2="393.972"/>
	<line fill="none" stroke="#000000" stroke-miterlimit="10" x1="323.976" y1="198.802" x2="339.59" y2="198.802"/>
	<line fill="none" stroke="#000000" stroke-miterlimit="10" x1="519.146" y1="236.275" x2="534.759" y2="236.275"/>
	<line fill="none" stroke="#000000" stroke-miterlimit="10" x1="523.83" y1="331.518" x2="544.128" y2="331.518"/>
</g>
<g id="b">
	<line fill="none" stroke="#000000" stroke-miterlimit="10" x1="137.613" y1="264.379" x2="153.07" y2="264.379"/>
	<line fill="none" stroke="#000000" stroke-miterlimit="10" x1="140.735" y1="331.518" x2="164.156" y2="331.518"/>
	<line fill="none" stroke="#000000" stroke-miterlimit="10" x1="273.451" y1="393.972" x2="293.749" y2="393.972"/>
	<line fill="none" stroke="#000000" stroke-miterlimit="10" x1="470.182" y1="393.972" x2="490.48" y2="393.972"/>
	<line fill="none" stroke="#000000" stroke-miterlimit="10" x1="449.885" y1="198.802" x2="465.498" y2="198.802"/>
	<line fill="none" stroke="#000000" stroke-miterlimit="10" x1="262.522" y1="198.802" x2="278.135" y2="198.802"/>
	<line fill="none" stroke="#000000" stroke-miterlimit="10" x1="520.146" y1="170.698" x2="535.759" y2="170.698"/>
	<line fill="none" stroke="#000000" stroke-miterlimit="10" x1="524.83" y1="397.095" x2="545.128" y2="397.095"/>
</g>
<g id="a">
	<line fill="none" stroke="#000000" stroke-miterlimit="10" x1="137.613" y1="198.802" x2="153.226" y2="198.802"/>
	<line fill="none" stroke="#000000" stroke-miterlimit="10" x1="140.735" y1="378.359" x2="164.156" y2="378.359"/>
	<line fill="none" stroke="#000000" stroke-miterlimit="10" x1="218.803" y1="393.972" x2="239.101" y2="393.972"/>
	<line fill="none" stroke="#000000" stroke-miterlimit="10" x1="393.676" y1="393.972" x2="413.973" y2="393.972"/>
	<line fill="none" stroke="#000000" stroke-miterlimit="10" x1="386.869" y1="198.412" x2="402.483" y2="198.412"/>
	<line fill="none" stroke="#000000" stroke-miterlimit="10" x1="200.067" y1="198.412" x2="215.681" y2="198.412"/>
	<line fill="none" stroke="#000000" stroke-miterlimit="10" x1="520.146" y1="105.121" x2="535.759" y2="105.121"/>
	<line fill="none" stroke="#000000" stroke-miterlimit="10" x1="524.83" y1="462.672" x2="545.128" y2="462.672"/>
</g>
</svg>
